# Blender v2.76 (sub 0) OBJ File: 'simplecar.blend'
# www.blender.org
v -2.514734 0.074278 -1.334631
v 0.685967 0.273263 -1.579501
v 0.866138 0.350164 -1.593549
v 1.558710 0.089482 -1.645310
v 1.239406 0.113259 -1.621058
v 1.168015 0.273115 -1.616258
v 1.002180 0.350122 -1.603923
v -1.513479 0.256180 -1.411714
v -1.842993 0.292622 -1.386734
v -2.033330 0.131241 -1.371570
v 1.552807 0.002576 -1.644510
v 1.623640 -0.036995 -1.649752
v 1.647250 -0.295582 -1.650510
v -2.508905 -0.132632 -1.334242
v 0.560465 0.151946 -1.569442
v 1.570516 -0.346948 -1.644451
v -2.542782 -0.166201 -1.331523
v 1.565339 -0.585069 -1.643097
v -1.383060 0.125905 -1.421134
v -2.497416 -0.285022 -1.334503
v 1.264866 -0.970154 -1.618632
v -2.418826 -0.456560 -1.339805
v 1.316700 -1.041876 -1.622296
v 0.957653 -1.101650 -1.594676
v -0.322752 -1.129299 -1.496928
v -0.780374 -1.015419 -1.462492
v -1.407767 -0.713057 -1.415870
v -2.241746 -0.561282 -1.352886
v -2.057286 -0.551531 1.066119
v -1.223307 -0.703306 1.003136
v -0.595914 -1.005669 0.956513
v -0.138292 -1.119548 0.922077
v 1.142113 -1.091900 0.824329
v 1.501161 -1.032125 0.796709
v -2.234366 -0.446810 1.079200
v 1.449327 -0.960403 0.800372
v -2.312956 -0.275272 1.084501
v -1.198600 0.135655 0.997871
v 1.749799 -0.575318 0.775908
v -2.358322 -0.156451 1.087482
v 1.754975 -0.337197 0.774553
v 0.744925 0.161697 0.849563
v -2.324445 -0.122881 1.084763
v 1.831710 -0.285832 0.768495
v 1.808099 -0.027244 0.769253
v 1.737267 0.012327 0.774495
v -1.848870 0.140991 1.047435
v -1.658533 0.302373 1.032270
v -1.329019 0.265930 1.007290
v 1.186640 0.359873 0.815081
v 1.352474 0.282865 0.802746
v 1.423866 0.123010 0.797947
v 1.743170 0.099232 0.773694
v 1.050598 0.359915 0.825455
v 0.870427 0.283013 0.839504
v -2.330274 0.084029 1.084374
vt 0.036993 0.966347
vt 0.067997 0.966347
vt 0.067997 0.968091
vt 0.947582 0.217872
vt 0.930914 0.237809
vt 0.664308 0.242686
vt 0.036993 0.961603
vt 0.036994 0.936691
vt 0.067998 0.936691
vt 0.928821 0.396300
vt 0.659169 0.409830
vt 0.626665 0.356723
vt 0.036993 0.972671
vt 0.067997 0.972671
vt 0.067997 0.976775
vt 0.926393 0.293064
vt 0.963431 0.346065
vt 0.038023 0.163503
vt 0.491537 0.154503
vt 0.495537 0.183437
vt 0.021023 0.204642
vt 0.501537 0.209641
vt 0.503537 0.265234
vt 0.036993 0.970433
vt 0.067997 0.970433
vt 0.940040 0.176591
vt 0.967425 0.210289
vt 0.656132 0.203259
vt 0.022023 0.267235
vt 0.507537 0.286848
vt 0.036993 0.968091
vt 0.528448 0.755904
vt 0.530208 0.722008
vt 0.560703 0.711316
vt 0.567664 0.695823
vt 0.626744 0.707657
vt 0.597034 0.688391
vt 0.614550 0.695874
vt 0.583802 0.688377
vt 0.860532 0.694343
vt 0.815778 0.710449
vt 0.828477 0.697832
vt 0.879028 0.710021
vt 0.925844 0.715611
vt 0.925255 0.735677
vt 0.558111 0.816387
vt 0.928546 0.738938
vt 0.528926 0.778998
vt 0.757036 0.821057
vt 0.712513 0.832039
vt 0.924121 0.750455
vt 0.818091 0.791818
vt 0.916459 0.767081
vt 0.587978 0.829182
vt 0.553061 0.823335
vt 0.899224 0.777213
vt 0.529643 0.713579
vt 0.523315 0.725836
vt 0.520990 0.750912
vt 0.036994 0.930083
vt 0.067998 0.930084
vt 0.067998 0.934333
vt 0.684944 0.289712
vt 0.036993 0.963837
vt 0.067997 0.963838
vt 0.036994 0.920676
vt 0.067998 0.920676
vt 0.067998 0.926889
vt 0.100023 0.469132
vt 0.053023 0.374747
vt 0.467537 0.377745
vt 0.020023 0.286850
vt 0.423537 0.474130
vt 0.388537 0.492246
vt 0.036994 0.934332
vt 0.874342 0.478996
vt 0.724829 0.491994
vt 0.713655 0.483219
vt 0.662507 0.236203
vt 0.915375 0.422968
vt 0.879152 0.475967
vt 0.691877 0.456648
vt 0.029023 0.188437
vt 0.067997 0.961603
vt 0.026653 0.770166
vt 0.135629 0.730341
vt 0.133031 0.812076
vt 0.364074 0.850386
vt 0.238958 0.852836
vt 0.394121 0.837633
vt 0.325539 0.728173
vt 0.431632 0.771982
vt 0.424123 0.776972
vt 0.429382 0.746784
vt 0.422470 0.742915
vt 0.025040 0.735156
vt 0.072091 0.729698
vt 0.368743 0.708949
vt 0.384930 0.716483
vt 0.391871 0.732072
vt 0.423065 0.734449
vt 0.034295 0.786894
vt 0.051575 0.797130
vt 0.399170 0.844630
vt 0.194268 0.841654
vt 0.022247 0.758580
vt 0.423565 0.800171
vt 0.025564 0.755316
vt 0.090724 0.714010
vt 0.122914 0.717624
vt 0.355450 0.708919
vt 0.337829 0.716377
vt 0.036994 0.926889
vt 0.872516 0.483258
vt 0.723828 0.494813
vt 0.036993 0.976774
vt 0.649548 0.186115
vt 0.129023 0.493249
vn -0.000000 -1.000000 0.004000
vn 0.931200 0.357300 -0.072400
vn 0.013600 -0.999900 0.003000
vn 0.177700 0.983900 -0.017500
vn -0.073500 -0.997200 0.009600
vn 0.506300 0.861300 -0.042100
vn -0.994800 0.068300 0.075600
vn -0.993000 -0.090900 0.076100
vn -0.910000 -0.408500 0.071000
vn 0.996700 0.027900 -0.076100
vn -0.553700 0.831800 0.038900
vn -0.418700 -0.907400 0.035600
vn 0.076000 0.004000 0.997100
vn -0.109000 -0.994000 0.012300
vn 0.906000 0.417300 -0.070800
vn 0.390700 -0.920100 -0.026100
vn 0.117100 -0.993100 -0.004900
vn -0.785300 0.616400 0.057400
vn -0.996900 0.022100 0.075900
vn -0.807300 -0.586700 0.063900
vn -0.703500 -0.708400 0.056500
vn -0.021800 0.999800 -0.002400
vn 0.700900 -0.711400 -0.050600
vn 0.239900 0.970600 -0.022200
vn 0.431700 0.901300 -0.036500
vn -0.485000 -0.873600 0.040500
vn 0.692100 -0.720100 -0.049900
vn -0.076000 -0.004000 -0.997100
vn 0.643900 -0.763700 -0.046000
vn -0.163600 0.986500 0.008500
s off
f 54/1/1 3/2/1 7/3/1
f 40/4/2 37/5/2 20/6/2
f 42/7/3 38/8/3 19/9/3
f 30/10/4 27/11/4 28/12/4
f 52/13/5 5/14/5 4/15/5
f 35/16/6 29/17/6 28/12/6
f 53/18/7 4/19/7 11/20/7
f 45/21/8 12/22/8 13/23/8
f 51/24/9 6/25/9 5/14/9
f 56/26/10 43/27/10 14/28/10
f 44/29/11 13/23/11 16/30/11
f 50/31/12 7/3/12 6/25/12
f 16/32/13 11/33/13 5/34/13
f 6/35/13 15/36/13 5/34/13
f 15/36/13 3/37/13 2/38/13
f 15/36/13 7/39/13 3/37/13
f 9/40/13 19/41/13 8/42/13
f 10/43/13 19/41/13 9/40/13
f 1/44/13 14/45/13 19/41/13
f 15/36/13 21/46/13 16/32/13
f 14/45/13 17/47/13 19/41/13
f 21/46/13 18/48/13 16/32/13
f 19/41/13 26/49/13 25/50/13
f 17/47/13 20/51/13 19/41/13
f 19/41/13 27/52/13 26/49/13
f 20/51/13 22/53/13 27/52/13
f 24/54/13 23/55/13 21/46/13
f 22/53/13 28/56/13 27/52/13
f 11/33/13 4/57/13 5/34/13
f 15/36/13 16/32/13 5/34/13
f 15/36/13 6/35/13 7/39/13
f 19/41/13 10/43/13 1/44/13
f 12/58/13 11/33/13 16/32/13
f 19/41/13 25/50/13 15/36/13
f 13/59/13 12/58/13 16/32/13
f 21/46/13 15/36/13 25/50/13
f 24/54/13 21/46/13 25/50/13
f 20/51/13 27/52/13 19/41/13
f 48/60/14 9/61/14 8/62/14
f 35/16/15 22/63/15 20/6/15
f 54/1/16 55/64/16 2/65/16
f 56/66/17 1/67/17 10/68/17
f 36/69/18 39/70/18 18/71/18
f 41/72/19 16/30/19 18/71/19
f 36/69/20 21/73/20 23/74/20
f 49/75/21 8/62/21 19/9/21
f 33/76/22 24/77/22 25/78/22
f 40/4/23 17/79/23 14/28/23
f 31/80/24 32/81/24 25/78/24
f 31/80/25 26/82/25 27/11/25
f 45/21/26 46/83/26 11/20/26
f 55/64/27 42/7/27 15/84/27
f 37/85/28 38/86/28 30/87/28
f 33/88/28 32/89/28 36/90/28
f 36/90/28 32/89/28 42/91/28
f 44/92/28 41/93/28 45/94/28
f 38/86/28 42/91/28 32/89/28
f 45/94/28 41/93/28 46/95/28
f 38/86/28 56/96/28 47/97/28
f 42/91/28 50/98/28 51/99/28
f 42/91/28 52/100/28 41/93/28
f 46/95/28 52/100/28 53/101/28
f 35/102/28 30/87/28 29/103/28
f 33/88/28 36/90/28 34/104/28
f 37/85/28 30/87/28 35/102/28
f 38/86/28 31/105/28 30/87/28
f 40/106/28 38/86/28 37/85/28
f 38/86/28 32/89/28 31/105/28
f 36/90/28 41/93/28 39/107/28
f 43/108/28 38/86/28 40/106/28
f 42/91/28 41/93/28 36/90/28
f 56/96/28 38/86/28 43/108/28
f 47/97/28 48/109/28 38/86/28
f 48/109/28 49/110/28 38/86/28
f 42/91/28 54/111/28 50/98/28
f 42/91/28 55/112/28 54/111/28
f 51/99/28 52/100/28 42/91/28
f 41/93/28 52/100/28 46/95/28
f 47/113/29 10/68/29 9/61/29
f 34/114/30 23/115/30 24/77/30
f 50/31/1 54/1/1 7/3/1
f 17/79/2 40/4/2 20/6/2
f 15/84/3 42/7/3 19/9/3
f 29/17/4 30/10/4 28/12/4
f 53/116/5 52/13/5 4/15/5
f 22/63/6 35/16/6 28/12/6
f 46/83/7 53/18/7 11/20/7
f 44/29/8 45/21/8 13/23/8
f 52/13/9 51/24/9 5/14/9
f 1/117/10 56/26/10 14/28/10
f 41/72/11 44/29/11 16/30/11
f 51/24/12 50/31/12 6/25/12
f 49/75/14 48/60/14 8/62/14
f 37/5/15 35/16/15 20/6/15
f 3/2/16 54/1/16 2/65/16
f 47/113/17 56/66/17 10/68/17
f 21/73/18 36/69/18 18/71/18
f 39/70/19 41/72/19 18/71/19
f 34/118/20 36/69/20 23/74/20
f 38/8/21 49/75/21 19/9/21
f 32/81/22 33/76/22 25/78/22
f 43/27/23 40/4/23 14/28/23
f 26/82/24 31/80/24 25/78/24
f 30/10/25 31/80/25 27/11/25
f 12/22/26 45/21/26 11/20/26
f 2/65/27 55/64/27 15/84/27
f 48/60/29 47/113/29 9/61/29
f 33/76/30 34/114/30 24/77/30
