# Blender v2.76 (sub 0) OBJ File: 'simplecar.blend'
# www.blender.org
v -2.514734 0.074278 -1.178401
v 0.685967 0.273263 -1.386264
v 0.866138 0.350164 -1.398189
v 1.558710 0.089482 -1.442128
v 1.239406 0.113259 -1.421540
v 1.168015 0.273115 -1.417466
v 1.002180 0.350122 -1.406995
v -1.513479 0.256180 -1.243835
v -1.842993 0.292622 -1.222630
v -2.033330 0.131241 -1.209758
v 1.552807 0.002576 -1.441448
v 1.623640 -0.036995 -1.445898
v 1.647250 -0.295582 -1.446541
v -2.508905 -0.132632 -1.178071
v 0.560465 0.151946 -1.377725
v 1.570516 -0.346948 -1.441399
v -2.542782 -0.166201 -1.175763
v 1.565339 -0.585069 -1.440249
v -1.383060 0.125905 -1.251831
v -2.497416 -0.285022 -1.178293
v 1.264866 -0.970154 -1.419482
v -2.418826 -0.456560 -1.182793
v 1.316700 -1.041876 -1.422591
v 0.957653 -1.101650 -1.399146
v -0.322752 -1.129299 -1.316170
v -0.780374 -1.015419 -1.286939
v -1.407767 -0.713057 -1.247362
v -2.241746 -0.561282 -1.193897
v -2.057286 -0.551531 0.859522
v -1.223307 -0.703306 0.806058
v -0.595914 -1.005669 0.766481
v -0.138292 -1.119548 0.737249
v 1.142113 -1.091900 0.654274
v 1.501161 -1.032125 0.630828
v -2.234366 -0.446810 0.870626
v 1.449327 -0.960403 0.633938
v -2.312956 -0.275272 0.875126
v -1.198600 0.135655 0.801588
v 1.749799 -0.575318 0.613171
v -2.358322 -0.156451 0.877656
v 1.754975 -0.337197 0.612021
v 0.744925 0.161697 0.675695
v -2.324445 -0.122881 0.875349
v 1.831710 -0.285832 0.606878
v 1.808099 -0.027244 0.607522
v 1.737267 0.012327 0.611971
v -1.848870 0.140991 0.843662
v -1.658533 0.302373 0.830789
v -1.329019 0.265930 0.809584
v 1.186640 0.359873 0.646424
v 1.352474 0.282865 0.635953
v 1.423866 0.123010 0.631879
v 1.743170 0.099232 0.611292
v 1.050598 0.359915 0.655230
v 0.870427 0.283013 0.667156
v -2.330274 0.084029 0.875018
vt 0.036993 0.966347
vt 0.067997 0.968091
vt 0.067997 0.966347
vt 0.947582 0.217872
vt 0.664308 0.242686
vt 0.930914 0.237809
vt 0.036993 0.961603
vt 0.067998 0.936691
vt 0.036994 0.936691
vt 0.928821 0.396300
vt 0.626665 0.356723
vt 0.659169 0.409830
vt 0.036993 0.972671
vt 0.067997 0.976775
vt 0.067997 0.972671
vt 0.926393 0.293064
vt 0.963431 0.346065
vt 0.038023 0.163503
vt 0.495537 0.183437
vt 0.491537 0.154503
vt 0.021023 0.204642
vt 0.503537 0.265234
vt 0.501537 0.209641
vt 0.036993 0.970433
vt 0.067997 0.970433
vt 0.940040 0.176591
vt 0.656132 0.203259
vt 0.967425 0.210289
vt 0.022023 0.267235
vt 0.507537 0.286848
vt 0.036993 0.968091
vt 0.528448 0.755904
vt 0.560703 0.711316
vt 0.530208 0.722008
vt 0.567664 0.695823
vt 0.626744 0.707657
vt 0.614550 0.695874
vt 0.597034 0.688391
vt 0.583802 0.688377
vt 0.860532 0.694343
vt 0.828477 0.697832
vt 0.815778 0.710449
vt 0.879028 0.710021
vt 0.925844 0.715611
vt 0.925255 0.735677
vt 0.558111 0.816387
vt 0.928546 0.738938
vt 0.528926 0.778998
vt 0.712513 0.832039
vt 0.757036 0.821057
vt 0.924121 0.750455
vt 0.818091 0.791818
vt 0.916459 0.767081
vt 0.587978 0.829182
vt 0.553061 0.823335
vt 0.899224 0.777213
vt 0.529643 0.713579
vt 0.523315 0.725836
vt 0.520990 0.750912
vt 0.036994 0.930083
vt 0.067998 0.934333
vt 0.067998 0.930084
vt 0.684944 0.289712
vt 0.067997 0.963838
vt 0.036993 0.963837
vt 0.036994 0.920676
vt 0.067998 0.926889
vt 0.067998 0.920676
vt 0.100023 0.469132
vt 0.467537 0.377745
vt 0.053023 0.374747
vt 0.020023 0.286850
vt 0.388537 0.492246
vt 0.423537 0.474130
vt 0.036994 0.934332
vt 0.874342 0.478996
vt 0.713655 0.483219
vt 0.724829 0.491994
vt 0.662507 0.236203
vt 0.915375 0.422968
vt 0.879152 0.475967
vt 0.691877 0.456648
vt 0.029023 0.188437
vt 0.067997 0.961603
vt 0.026653 0.770166
vt 0.133031 0.812076
vt 0.135629 0.730341
vt 0.364074 0.850386
vt 0.394121 0.837633
vt 0.238958 0.852836
vt 0.325539 0.728173
vt 0.431632 0.771982
vt 0.429382 0.746784
vt 0.424123 0.776972
vt 0.422470 0.742915
vt 0.072091 0.729698
vt 0.025040 0.735156
vt 0.384930 0.716483
vt 0.368743 0.708949
vt 0.391871 0.732072
vt 0.423065 0.734449
vt 0.034295 0.786894
vt 0.051575 0.797130
vt 0.399170 0.844630
vt 0.194268 0.841654
vt 0.022247 0.758580
vt 0.423565 0.800171
vt 0.025564 0.755316
vt 0.090724 0.714010
vt 0.122914 0.717624
vt 0.355450 0.708919
vt 0.337829 0.716377
vt 0.036994 0.926889
vt 0.872516 0.483258
vt 0.723828 0.494813
vt 0.036993 0.976774
vt 0.649548 0.186115
vt 0.129023 0.493249
vn 0.000000 1.000000 -0.004700
vn -0.930200 -0.357000 0.085300
vn -0.013600 0.999900 -0.003500
vn -0.177700 -0.983900 0.020600
vn 0.073500 0.997200 -0.011300
vn -0.506100 -0.861100 0.049600
vn 0.993700 -0.068200 -0.088900
vn 0.991800 0.090800 -0.089500
vn 0.909100 0.408100 -0.083600
vn -0.995600 -0.027900 0.089600
vn 0.553600 -0.831500 -0.045800
vn 0.418600 0.907200 -0.041900
vn -0.064600 -0.003400 -0.997900
vn 0.109000 0.993900 -0.014500
vn -0.905100 -0.416900 0.083300
vn -0.390700 0.920000 0.030700
vn -0.117100 0.993100 0.005800
vn 0.784800 -0.616000 -0.067600
vn 0.995800 -0.022100 -0.089300
vn 0.806600 0.586200 -0.075200
vn 0.703100 0.708000 -0.066500
vn 0.021800 -0.999800 0.002800
vn -0.700600 0.711100 0.059600
vn -0.239800 -0.970500 0.026200
vn -0.431500 -0.901100 0.043000
vn 0.484900 0.873300 -0.047700
vn -0.691700 0.719700 0.058700
vn 0.064600 0.003400 0.997900
vn -0.643600 0.763400 0.054200
vn 0.163600 -0.986500 -0.010000
s off
f 54/1/1 7/2/1 3/3/1
f 40/4/2 20/5/2 37/6/2
f 42/7/3 19/8/3 38/9/3
f 30/10/4 28/11/4 27/12/4
f 52/13/5 4/14/5 5/15/5
f 35/16/6 28/11/6 29/17/6
f 53/18/7 11/19/7 4/20/7
f 45/21/8 13/22/8 12/23/8
f 51/24/9 5/15/9 6/25/9
f 56/26/10 14/27/10 43/28/10
f 44/29/11 16/30/11 13/22/11
f 50/31/12 6/25/12 7/2/12
f 16/32/13 5/33/13 11/34/13
f 6/35/13 5/33/13 15/36/13
f 15/36/13 2/37/13 3/38/13
f 15/36/13 3/38/13 7/39/13
f 9/40/13 8/41/13 19/42/13
f 10/43/13 9/40/13 19/42/13
f 1/44/13 19/42/13 14/45/13
f 15/36/13 16/32/13 21/46/13
f 14/45/13 19/42/13 17/47/13
f 21/46/13 16/32/13 18/48/13
f 19/42/13 25/49/13 26/50/13
f 17/47/13 19/42/13 20/51/13
f 19/42/13 26/50/13 27/52/13
f 20/51/13 27/52/13 22/53/13
f 24/54/13 21/46/13 23/55/13
f 22/53/13 27/52/13 28/56/13
f 11/34/13 5/33/13 4/57/13
f 15/36/13 5/33/13 16/32/13
f 15/36/13 7/39/13 6/35/13
f 19/42/13 1/44/13 10/43/13
f 12/58/13 16/32/13 11/34/13
f 19/42/13 15/36/13 25/49/13
f 13/59/13 16/32/13 12/58/13
f 21/46/13 25/49/13 15/36/13
f 24/54/13 25/49/13 21/46/13
f 20/51/13 19/42/13 27/52/13
f 48/60/14 8/61/14 9/62/14
f 35/16/15 20/5/15 22/63/15
f 54/1/16 2/64/16 55/65/16
f 56/66/17 10/67/17 1/68/17
f 36/69/18 18/70/18 39/71/18
f 41/72/19 18/70/19 16/30/19
f 36/69/20 23/73/20 21/74/20
f 49/75/21 19/8/21 8/61/21
f 33/76/22 25/77/22 24/78/22
f 40/4/23 14/27/23 17/79/23
f 31/80/24 25/77/24 32/81/24
f 31/80/25 27/12/25 26/82/25
f 45/21/26 11/19/26 46/83/26
f 55/65/27 15/84/27 42/7/27
f 37/85/28 30/86/28 38/87/28
f 33/88/28 36/89/28 32/90/28
f 36/89/28 42/91/28 32/90/28
f 44/92/28 45/93/28 41/94/28
f 38/87/28 32/90/28 42/91/28
f 45/93/28 46/95/28 41/94/28
f 38/87/28 47/96/28 56/97/28
f 42/91/28 51/98/28 50/99/28
f 42/91/28 41/94/28 52/100/28
f 46/95/28 53/101/28 52/100/28
f 35/102/28 29/103/28 30/86/28
f 33/88/28 34/104/28 36/89/28
f 37/85/28 35/102/28 30/86/28
f 38/87/28 30/86/28 31/105/28
f 40/106/28 37/85/28 38/87/28
f 38/87/28 31/105/28 32/90/28
f 36/89/28 39/107/28 41/94/28
f 43/108/28 40/106/28 38/87/28
f 42/91/28 36/89/28 41/94/28
f 56/97/28 43/108/28 38/87/28
f 47/96/28 38/87/28 48/109/28
f 48/109/28 38/87/28 49/110/28
f 42/91/28 50/99/28 54/111/28
f 42/91/28 54/111/28 55/112/28
f 51/98/28 42/91/28 52/100/28
f 41/94/28 46/95/28 52/100/28
f 47/113/29 9/62/29 10/67/29
f 34/114/30 24/78/30 23/115/30
f 50/31/1 7/2/1 54/1/1
f 17/79/2 20/5/2 40/4/2
f 15/84/3 19/8/3 42/7/3
f 29/17/4 28/11/4 30/10/4
f 53/116/5 4/14/5 52/13/5
f 22/63/6 28/11/6 35/16/6
f 46/83/7 11/19/7 53/18/7
f 44/29/8 13/22/8 45/21/8
f 52/13/9 5/15/9 51/24/9
f 1/117/10 14/27/10 56/26/10
f 41/72/11 16/30/11 44/29/11
f 51/24/12 6/25/12 50/31/12
f 49/75/14 8/61/14 48/60/14
f 37/6/15 20/5/15 35/16/15
f 3/3/16 2/64/16 54/1/16
f 47/113/17 10/67/17 56/66/17
f 21/74/18 18/70/18 36/69/18
f 39/71/19 18/70/19 41/72/19
f 34/118/20 23/73/20 36/69/20
f 38/9/21 19/8/21 49/75/21
f 32/81/22 25/77/22 33/76/22
f 43/28/23 14/27/23 40/4/23
f 26/82/24 25/77/24 31/80/24
f 30/10/25 27/12/25 31/80/25
f 12/23/26 11/19/26 45/21/26
f 2/64/27 15/84/27 55/65/27
f 48/60/29 9/62/29 47/113/29
f 33/76/30 24/78/30 34/114/30
